<?xml version="1.0" standalone="no"?>
<!DOCTYPE svg PUBLIC "-//W3C//DTD SVG 20010904//EN"
 "http://www.w3.org/TR/2001/REC-SVG-20010904/DTD/svg10.dtd">
<svg version="1.0" xmlns="http://www.w3.org/2000/svg"
 width="1120.000000pt" height="1120.000000pt" viewBox="0 0 1120.000000 1120.000000"
 preserveAspectRatio="xMidYMid meet">

<g transform="translate(0.000000,1120.000000) scale(0.100000,-0.100000)"
fill="#000000" stroke="none">
<path d="M0 5600 l0 -5600 5600 0 5600 0 0 5600 0 5600 -5600 0 -5600 0 0
-5600z m5714 2964 c1 -1 61 -7 134 -13 617 -54 1171 -307 1606 -734 87 -86
107 -117 75 -117 -6 0 -8 4 -4 9 7 12 -36 19 -50 8 -5 -4 -21 -16 -34 -28 -14
-11 -31 -17 -39 -14 -12 4 -13 3 -3 -9 7 -8 10 -20 6 -26 -3 -5 -1 -10 4 -10
6 0 11 4 11 10 0 5 8 6 18 3 14 -6 15 -4 4 9 -10 13 -10 17 4 22 9 4 19 4 22
1 3 -3 0 -5 -7 -5 -8 0 -11 -7 -7 -15 3 -10 -1 -18 -12 -22 -9 -3 -25 -13 -34
-21 -20 -17 -8 -25 -204 147 -252 219 -504 371 -799 479 -175 64 -476 122
-632 122 l-56 0 6 -272 c4 -149 7 -669 7 -1155 0 -707 3 -883 13 -883 15 0
108 82 308 271 85 81 179 168 209 194 30 27 114 103 185 171 72 67 191 172
265 234 74 62 143 120 153 128 9 8 19 13 22 10 12 -11 -166 -194 -521 -538
-208 -201 -401 -390 -430 -420 l-53 -55 132 -6 c73 -4 434 -7 802 -8 369 -1
893 -8 1165 -16 272 -7 646 -17 830 -21 184 -4 344 -10 355 -15 11 -4 -167 -8
-395 -8 -996 -2 -1665 -15 -2195 -41 -110 -5 -339 -14 -510 -21 -170 -6 -313
-13 -318 -16 -4 -3 97 -109 225 -236 227 -225 343 -346 304 -316 -15 11 -20
11 -23 2 -4 -10 -10 -10 -24 -2 -11 5 -17 15 -13 21 4 7 9 6 15 -3 4 -7 11
-10 15 -7 3 4 0 14 -8 21 -13 13 -16 13 -26 -4 -7 -11 -8 -20 -2 -24 6 -3 15
-16 22 -28 10 -20 -14 -1 -167 132 -22 19 -90 81 -151 137 -150 140 -164 151
-175 133 -5 -8 -9 -50 -10 -94 -1 -96 -15 -283 -17 -239 -4 66 -13 93 -31 86
-9 -3 -19 -10 -23 -16 -4 -6 -18 -12 -31 -13 -32 -2 -37 22 -37 183 0 68 -3
124 -6 124 -7 0 -101 -67 -128 -92 -11 -10 -23 -18 -27 -18 -3 0 -64 -49 -133
-109 -108 -92 -132 -108 -159 -107 -18 1 -37 5 -44 9 -6 4 -13 0 -17 -8 -3 -8
-12 -15 -20 -15 -8 0 -20 -8 -25 -17 -6 -10 -11 -13 -11 -8 0 27 314 314 496
453 44 34 52 46 35 57 -11 6 -468 30 -881 45 -506 18 -1180 30 -1840 31 -358
1 -613 5 -585 9 28 5 248 13 490 20 242 6 553 15 690 20 138 5 592 9 1010 9
825 1 1019 6 1007 27 -4 6 -178 185 -387 396 -440 444 -559 568 -575 598 -17
31 -7 24 129 -93 196 -168 525 -471 756 -697 l220 -215 7 985 c3 542 11 1044
17 1115 5 72 10 191 9 265 -1 134 -1 134 -9 51 -4 -46 -10 -85 -13 -88 -2 -3
-51 -9 -108 -13 -604 -49 -1107 -283 -1580 -736 -91 -87 -172 -185 -260 -314
-80 -117 -125 -206 -187 -360 -26 -66 -51 -117 -56 -113 -4 5 -6 1 -2 -8 3 -9
-5 -50 -18 -90 -20 -66 -23 -71 -30 -46 -6 22 -13 27 -40 27 -18 0 -35 4 -37
9 -1 5 -17 12 -35 15 -30 7 -33 5 -58 -41 -14 -26 -23 -37 -20 -23 3 14 7 34
9 45 14 92 120 375 204 541 140 278 406 571 717 791 232 164 442 272 695 357
262 87 517 136 726 139 l111 2 7 100 c5 81 16 314 27 575 1 19 13 -122 27
-315 14 -192 25 -351 26 -351z m-3043 249 c13 -16 12 -17 -3 -4 -10 7 -18 15
-18 17 0 8 8 3 21 -13z m5542 -478 c-329 -332 -417 -415 -437 -415 -14 0 -26
4 -26 8 0 5 64 69 142 143 79 74 195 184 258 244 63 61 176 165 250 232 74 67
153 140 175 162 21 23 42 41 45 41 3 0 -180 -186 -407 -415z m-5175 136 c334
-310 589 -558 581 -565 -20 -21 -99 50 -454 410 -214 217 -389 395 -387 394 1
0 118 -107 260 -239z m4472 -791 c-8 -5 -19 -10 -25 -10 -5 0 -3 5 5 10 8 5
20 10 25 10 6 0 3 -5 -5 -10z m-4250 -975 c0 -8 -4 -15 -9 -15 -13 0 -22 16
-14 24 11 11 23 6 23 -9z m-79 -68 c-10 -9 -11 -8 -5 6 3 10 9 15 12 12 3 -3
0 -11 -7 -18z m-24 -9 c-3 -8 -6 -5 -6 6 -1 11 2 17 5 13 3 -3 4 -12 1 -19z
m190 -23 c-6 -19 -12 -33 -14 -32 -6 7 9 67 17 67 5 0 3 -16 -3 -35z"/>
<path d="M7465 7780 c10 -11 20 -20 23 -20 3 0 -3 9 -13 20 -10 11 -20 20 -23
20 -3 0 3 -9 13 -20z"/>
<path d="M7334 7663 c3 -7 21 -22 39 -35 18 -12 26 -15 20 -7 -7 9 -9 19 -5
24 4 4 0 5 -8 3 -8 -3 -24 2 -34 11 -11 9 -16 11 -12 4z"/>
<path d="M3376 6787 c3 -10 9 -15 12 -12 3 3 0 11 -7 18 -10 9 -11 8 -5 -6z"/>
<path d="M3186 6745 c-9 -26 -7 -32 5 -12 6 10 9 21 6 23 -2 3 -7 -2 -11 -11z"/>
</g>
</svg>
